#N canvas 653 457 450 300 12;
#X obj 151 125 adc~ 1 2 3 4 5 6;
#X obj 152 184 dac~ 1 2 3 4 5 6;
#X connect 0 0 1 0;
#X connect 0 1 1 1;
#X connect 0 2 1 2;
#X connect 0 3 1 3;
#X connect 0 4 1 4;
#X connect 0 5 1 5;
