#N canvas 2220 331 802 519 12;
#X obj 112 43 adc~ 1 2 3 4 5 6, f 47;
#X obj 113 199 dac~ 1 2 3 4 5 6, f 47;
#X obj 112 127 *~ 1;
#X obj 137 94 r K1;
#X obj 178 126 *~ 1;
#X obj 242 128 *~ 1;
#X obj 308 127 *~ 1;
#X obj 372 127 *~ 1;
#X obj 438 126 *~ 1;
#X obj 203 93 r K2;
#X obj 267 93 r K3;
#X obj 333 94 r K4;
#X obj 397 93 r K5;
#X obj 463 93 r K6;
#X obj 290 416 print toVCV;
#X msg 267 278 L3 \$1 0 0;
#X msg 333 310 L4 \$1 0 0;
#X msg 463 311 L6 \$1 0 0;
#X msg 136 277 L1 \$1 0 0;
#X msg 203 309 L2 \$1 0 0;
#X msg 397 280 L5 \$1 0 0;
#X connect 0 0 2 0;
#X connect 0 1 4 0;
#X connect 0 2 5 0;
#X connect 0 3 6 0;
#X connect 0 4 7 0;
#X connect 0 5 8 0;
#X connect 2 0 1 0;
#X connect 3 0 2 1;
#X connect 3 0 18 0;
#X connect 4 0 1 1;
#X connect 5 0 1 2;
#X connect 6 0 1 3;
#X connect 7 0 1 4;
#X connect 8 0 1 5;
#X connect 9 0 4 1;
#X connect 9 0 19 0;
#X connect 10 0 5 1;
#X connect 10 0 15 0;
#X connect 11 0 6 1;
#X connect 11 0 16 0;
#X connect 12 0 7 1;
#X connect 12 0 20 0;
#X connect 13 0 8 1;
#X connect 13 0 17 0;
#X connect 15 0 14 0;
#X connect 16 0 14 0;
#X connect 17 0 14 0;
#X connect 18 0 14 0;
#X connect 19 0 14 0;
#X connect 20 0 14 0;
