#N canvas 2220 331 805 580 12;
#X obj 112 43 adc~ 1 2 3 4 5 6, f 47;
#X obj 113 281 dac~ 1 2 3 4 5 6, f 47;
#X obj 112 127 *~ 1;
#X obj 137 94 r K1;
#X obj 178 126 *~ 1;
#X obj 242 128 *~ 1;
#X obj 308 127 *~ 1;
#X obj 372 127 *~ 1;
#X obj 438 126 *~ 1;
#X obj 203 93 r K2;
#X obj 267 93 r K3;
#X obj 333 94 r K4;
#X obj 397 93 r K5;
#X obj 463 93 r K6;
#X obj 290 502 print toVCV;
#X msg 267 315 L3 \$1 0 0;
#X msg 333 347 L4 \$1 0 0;
#X msg 463 348 L6 \$1 0 0;
#X msg 136 314 L1 \$1 0 0;
#X msg 203 346 L2 \$1 0 0;
#X msg 397 317 L5 \$1 0 0;
#X obj 112 230 *~ 1;
#X obj 178 229 *~ 1;
#X obj 242 231 *~ 1;
#X obj 308 230 *~ 1;
#X obj 372 230 *~ 1;
#X obj 438 229 *~ 1;
#X obj 147 158 r S1;
#X obj 213 157 r S2;
#X obj 277 157 r S3;
#X obj 343 158 r S4;
#X obj 407 157 r S5;
#X obj 473 158 r S6;
#X obj 473 197 - 1;
#X obj 407 196 - 1;
#X obj 343 194 - 1;
#X obj 277 195 - 1;
#X obj 213 196 - 1;
#X obj 147 195 - 1;
#X msg 146 404 S1 \$1 0 0;
#X msg 213 436 S2 \$1 0 0;
#X msg 277 405 S3 \$1 0 0;
#X msg 343 438 S4 \$1 0 0;
#X msg 407 407 S5 \$1 0 0;
#X msg 473 437 S6 \$1 0 0;
#X connect 0 0 2 0;
#X connect 0 1 4 0;
#X connect 0 2 5 0;
#X connect 0 3 6 0;
#X connect 0 4 7 0;
#X connect 0 5 8 0;
#X connect 2 0 21 0;
#X connect 3 0 2 1;
#X connect 3 0 18 0;
#X connect 4 0 22 0;
#X connect 5 0 23 0;
#X connect 6 0 24 0;
#X connect 7 0 25 0;
#X connect 8 0 26 0;
#X connect 9 0 4 1;
#X connect 9 0 19 0;
#X connect 10 0 5 1;
#X connect 10 0 15 0;
#X connect 11 0 6 1;
#X connect 11 0 16 0;
#X connect 12 0 7 1;
#X connect 12 0 20 0;
#X connect 13 0 8 1;
#X connect 13 0 17 0;
#X connect 15 0 14 0;
#X connect 16 0 14 0;
#X connect 17 0 14 0;
#X connect 18 0 14 0;
#X connect 19 0 14 0;
#X connect 20 0 14 0;
#X connect 21 0 1 0;
#X connect 22 0 1 1;
#X connect 23 0 1 2;
#X connect 24 0 1 3;
#X connect 25 0 1 4;
#X connect 26 0 1 5;
#X connect 27 0 38 0;
#X connect 27 0 39 0;
#X connect 28 0 37 0;
#X connect 28 0 40 0;
#X connect 29 0 36 0;
#X connect 29 0 41 0;
#X connect 30 0 35 0;
#X connect 30 0 42 0;
#X connect 31 0 34 0;
#X connect 31 0 43 0;
#X connect 32 0 33 0;
#X connect 32 0 44 0;
#X connect 33 0 26 1;
#X connect 34 0 25 1;
#X connect 35 0 24 1;
#X connect 36 0 23 1;
#X connect 37 0 22 1;
#X connect 38 0 21 1;
#X connect 39 0 14 0;
#X connect 40 0 14 0;
#X connect 41 0 14 0;
#X connect 42 0 14 0;
#X connect 43 0 14 0;
#X connect 44 0 14 0;
