#N canvas 837 209 813 659 12;
#X obj 104 30 adc~ 1 2 3 4 5 6, f 47;
#X obj 105 261 dac~ 1 2 3 4 5 6, f 47;
#X obj 104 98 *~ 1;
#X obj 169 98 *~ 1;
#X obj 233 98 *~ 1;
#X obj 299 98 *~ 1;
#X obj 363 98 *~ 1;
#X obj 429 98 *~ 1;
#X msg 171 365 L3 \$1 0 0;
#X msg 247 365 L4 \$1 0 0;
#X msg 397 365 L6 \$1 0 0;
#X msg 21 365 L1 \$1 0 0;
#X msg 96 365 L2 \$1 0 0;
#X msg 322 365 L5 \$1 0 0;
#X obj 105 229 *~ 1;
#X obj 170 228 *~ 1;
#X obj 234 228 *~ 1;
#X obj 300 228 *~ 1;
#X obj 364 228 *~ 1;
#X obj 430 228 *~ 1;
#X msg 21 521 S1 \$1 0 0;
#X msg 96 522 S2 \$1 0 0;
#X msg 171 522 S3 \$1 0 0;
#X msg 247 523 S4 \$1 0 0;
#X msg 322 523 S5 \$1 0 0;
#X msg 397 523 S6 \$1 0 0;
#X obj 129 70 route K1 K2 K3 K4 K5 K6, f 56;
#X obj 130 169 route S1 S2 S3 S4 S5 S6, f 56;
#X obj 130 198 == 0;
#X obj 195 198 == 0;
#X obj 259 198 == 0;
#X obj 325 198 == 0;
#X obj 389 198 == 0;
#X obj 455 198 == 0;
#X obj 21 336 route K1 K2 K3 K4 K5 K6, f 65;
#X obj 21 492 route S1 S2 S3 S4 S5 S6, f 65;
#X text 541 368 Just using the red channels in the RGB triplet for
the LED., f 35;
#X text 542 492 Same for the switch., f 35;
#X obj 21 569 print toRack;
#X obj 20 30 r fromRack;
#X obj 19 134 r fromRack;
#X obj 21 307 r fromRack;
#X obj 21 422 print toRack;
#X obj 21 463 r fromRack;
#X text 539 52 Usually we'd interpolate here with line~ but VCVRack
is already sending one message per sample so there seems hardly a point
to complicate this example., f 38;
#X connect 0 0 2 0;
#X connect 0 1 3 0;
#X connect 0 2 4 0;
#X connect 0 3 5 0;
#X connect 0 4 6 0;
#X connect 0 5 7 0;
#X connect 2 0 14 0;
#X connect 3 0 15 0;
#X connect 4 0 16 0;
#X connect 5 0 17 0;
#X connect 6 0 18 0;
#X connect 7 0 19 0;
#X connect 8 0 42 0;
#X connect 9 0 42 0;
#X connect 10 0 42 0;
#X connect 11 0 42 0;
#X connect 12 0 42 0;
#X connect 13 0 42 0;
#X connect 14 0 1 0;
#X connect 15 0 1 1;
#X connect 16 0 1 2;
#X connect 17 0 1 3;
#X connect 18 0 1 4;
#X connect 19 0 1 5;
#X connect 20 0 38 0;
#X connect 21 0 38 0;
#X connect 22 0 38 0;
#X connect 23 0 38 0;
#X connect 24 0 38 0;
#X connect 25 0 38 0;
#X connect 26 0 2 1;
#X connect 26 1 3 1;
#X connect 26 2 4 1;
#X connect 26 3 5 1;
#X connect 26 4 6 1;
#X connect 26 5 7 1;
#X connect 27 0 28 0;
#X connect 27 1 29 0;
#X connect 27 2 30 0;
#X connect 27 3 31 0;
#X connect 27 4 32 0;
#X connect 27 5 33 0;
#X connect 28 0 14 1;
#X connect 29 0 15 1;
#X connect 30 0 16 1;
#X connect 31 0 17 1;
#X connect 32 0 18 1;
#X connect 33 0 19 1;
#X connect 34 0 11 0;
#X connect 34 1 12 0;
#X connect 34 2 8 0;
#X connect 34 3 9 0;
#X connect 34 4 13 0;
#X connect 34 5 10 0;
#X connect 35 0 20 0;
#X connect 35 1 21 0;
#X connect 35 2 22 0;
#X connect 35 3 23 0;
#X connect 35 4 24 0;
#X connect 35 5 25 0;
#X connect 39 0 26 0;
#X connect 40 0 27 0;
#X connect 41 0 34 0;
#X connect 43 0 35 0;
