#N canvas 1187 297 729 742 12;
#X obj 153 257 adc~ 1 2 3 4 5 6, f 47;
#X obj 153 427 dac~ 1 2 3 4 5 6, f 47;
#X obj 154 297 *~ 1;
#X obj 218 296 *~ 1;
#X obj 282 298 *~ 1;
#X obj 348 297 *~ 1;
#X obj 412 297 *~ 1;
#X obj 478 296 *~ 1;
#X obj 330 663 print toVCV;
#X msg 307 476 L3 \$1 0 0;
#X msg 373 508 L4 \$1 0 0;
#X msg 503 509 L6 \$1 0 0;
#X msg 176 475 L1 \$1 0 0;
#X msg 243 507 L2 \$1 0 0;
#X msg 437 478 L5 \$1 0 0;
#X obj 154 376 *~ 1;
#X obj 218 375 *~ 1;
#X obj 282 377 *~ 1;
#X obj 348 376 *~ 1;
#X obj 412 376 *~ 1;
#X obj 478 375 *~ 1;
#X msg 186 565 S1 \$1 0 0;
#X msg 253 597 S2 \$1 0 0;
#X msg 317 566 S3 \$1 0 0;
#X msg 383 599 S4 \$1 0 0;
#X msg 447 568 S5 \$1 0 0;
#X msg 513 598 S6 \$1 0 0;
#X obj 179 104 r fromVCV;
#X obj 179 143 route K1 K2 K3 K4 K5 K6, f 56;
#X obj 188 198 route S1 S2 S3 S4 S5 S6, f 56;
#X obj 187 341 == 0;
#X obj 253 342 == 0;
#X obj 317 341 == 0;
#X obj 383 340 == 0;
#X obj 447 342 == 0;
#X obj 513 343 == 0;
#X msg 89 622 display \$1 \$2;
#X obj 80 582 pack f f;
#X obj 107 526 t b f;
#X connect 0 0 2 0;
#X connect 0 1 3 0;
#X connect 0 2 4 0;
#X connect 0 3 5 0;
#X connect 0 4 6 0;
#X connect 0 5 7 0;
#X connect 2 0 15 0;
#X connect 3 0 16 0;
#X connect 4 0 17 0;
#X connect 5 0 18 0;
#X connect 6 0 19 0;
#X connect 7 0 20 0;
#X connect 9 0 8 0;
#X connect 10 0 8 0;
#X connect 11 0 8 0;
#X connect 12 0 8 0;
#X connect 13 0 8 0;
#X connect 14 0 8 0;
#X connect 15 0 1 0;
#X connect 16 0 1 1;
#X connect 17 0 1 2;
#X connect 18 0 1 3;
#X connect 19 0 1 4;
#X connect 20 0 1 5;
#X connect 21 0 8 0;
#X connect 22 0 8 0;
#X connect 23 0 8 0;
#X connect 24 0 8 0;
#X connect 25 0 8 0;
#X connect 26 0 8 0;
#X connect 27 0 28 0;
#X connect 28 0 2 1;
#X connect 28 0 12 0;
#X connect 28 0 37 0;
#X connect 28 1 3 1;
#X connect 28 1 13 0;
#X connect 28 1 38 0;
#X connect 28 2 4 1;
#X connect 28 2 9 0;
#X connect 28 3 5 1;
#X connect 28 3 10 0;
#X connect 28 4 6 1;
#X connect 28 4 14 0;
#X connect 28 5 7 1;
#X connect 28 5 11 0;
#X connect 28 6 29 0;
#X connect 29 0 30 0;
#X connect 29 0 21 0;
#X connect 29 1 31 0;
#X connect 29 1 22 0;
#X connect 29 2 32 0;
#X connect 29 2 23 0;
#X connect 29 3 33 0;
#X connect 29 3 24 0;
#X connect 29 4 34 0;
#X connect 29 4 25 0;
#X connect 29 5 35 0;
#X connect 29 5 26 0;
#X connect 30 0 15 1;
#X connect 31 0 16 1;
#X connect 32 0 17 1;
#X connect 33 0 18 1;
#X connect 34 0 19 1;
#X connect 35 0 20 1;
#X connect 36 0 8 0;
#X connect 37 0 36 0;
#X connect 38 0 37 0;
#X connect 38 1 37 1;
