#N canvas 547 398 649 666 12;
#N canvas 250 355 563 749 hsv2rgb 0;
#X obj 20 64 route 0;
#X msg 20 36 \$2 \$3 \$1;
#X obj 20 552 f;
#X obj 66 92 unpack 0 0 0, f 27;
#X text 87 37 svh;
#X obj 20 8 inlet hsv;
#X obj 20 663 outlet rgb;
#X obj 303 166 * 6;
#X obj 284 213 % 6;
#X obj 252 190 t f f;
#X msg 252 166 0;
#X text 308 213 i;
#X obj 252 264 -;
#X obj 66 501 *;
#X obj 66 169 - 1;
#X obj 66 196 * -1;
#X obj 103 502 *;
#X obj 103 399 - 1;
#X obj 103 424 * -1;
#X obj 103 377 *;
#X obj 252 288 t f f;
#X obj 282 311 - 1;
#X obj 282 334 * -1;
#X obj 140 503 *;
#X obj 140 400 - 1;
#X obj 140 425 * -1;
#X obj 140 378 *;
#X obj 66 142 t f f f, f 11;
#X obj 66 535 pack 0 0 0 0, f 16;
#N canvas 1219 718 529 336 select 0;
#X obj 290 37 inlet;
#X obj 16 281 outlet;
#X obj 16 58 t b l, f 20;
#X obj 152 176 unpack 0 0 0 0;
#X obj 16 29 inlet p q t v;
#X obj 16 123 i;
#X obj 16 175 select 0 1 2 3 4 5;
#X obj 16 239 pack 0 0 0;
#X obj 16 209 f;
#X obj 96 239 pack 0 0 0;
#X obj 96 209 f;
#X obj 176 239 pack 0 0 0;
#X obj 176 209 f;
#X obj 256 239 pack 0 0 0;
#X obj 256 209 f;
#X obj 336 239 pack 0 0 0;
#X obj 336 209 f;
#X obj 416 239 pack 0 0 0;
#X obj 416 209 f;
#X connect 0 0 5 1;
#X connect 2 0 5 0;
#X connect 2 1 3 0;
#X connect 3 0 7 2;
#X connect 3 0 9 2;
#X connect 3 0 12 1;
#X connect 3 0 14 1;
#X connect 3 0 15 1;
#X connect 3 0 17 1;
#X connect 3 1 10 1;
#X connect 3 1 13 1;
#X connect 3 1 17 2;
#X connect 3 2 7 1;
#X connect 3 2 11 2;
#X connect 3 2 16 1;
#X connect 3 3 8 1;
#X connect 3 3 9 1;
#X connect 3 3 11 1;
#X connect 3 3 13 2;
#X connect 3 3 15 2;
#X connect 3 3 18 1;
#X connect 4 0 2 0;
#X connect 5 0 6 0;
#X connect 6 0 8 0;
#X connect 6 1 10 0;
#X connect 6 2 12 0;
#X connect 6 3 14 0;
#X connect 6 4 16 0;
#X connect 6 5 18 0;
#X connect 7 0 1 0;
#X connect 8 0 7 0;
#X connect 9 0 1 0;
#X connect 10 0 9 0;
#X connect 11 0 1 0;
#X connect 12 0 11 0;
#X connect 13 0 1 0;
#X connect 14 0 13 0;
#X connect 15 0 1 0;
#X connect 16 0 15 0;
#X connect 17 0 1 0;
#X connect 18 0 17 0;
#X restore 66 560 pd select;
#X f 28;
#X msg 20 621 \$1 \$1 \$1;
#X obj 20 593 clip 0 1;
#X obj 66 117 clip 0 1;
#X obj 175 119 clip 0 1;
#X obj 252 118 clip 0 1;
#X obj 252 142 select 1;
#X obj 175 462 t f f f f;
#X obj 260 237 t f f;
#X text 26 699 taken from the GEM helpfile hsv2rgb-help;
#X connect 0 0 2 0;
#X connect 0 1 3 0;
#X connect 1 0 0 0;
#X connect 2 0 31 0;
#X connect 3 0 32 0;
#X connect 3 1 33 0;
#X connect 3 2 34 0;
#X connect 5 0 1 0;
#X connect 7 0 9 0;
#X connect 8 0 37 0;
#X connect 9 0 12 0;
#X connect 9 1 8 0;
#X connect 10 0 9 0;
#X connect 12 0 20 0;
#X connect 13 0 28 0;
#X connect 14 0 15 0;
#X connect 15 0 13 0;
#X connect 16 0 28 1;
#X connect 17 0 18 0;
#X connect 18 0 16 0;
#X connect 19 0 17 0;
#X connect 20 0 19 1;
#X connect 20 1 21 0;
#X connect 21 0 22 0;
#X connect 22 0 26 1;
#X connect 23 0 28 2;
#X connect 24 0 25 0;
#X connect 25 0 23 0;
#X connect 26 0 24 0;
#X connect 27 0 14 0;
#X connect 27 1 19 0;
#X connect 27 2 26 0;
#X connect 28 0 29 0;
#X connect 29 0 6 0;
#X connect 30 0 6 0;
#X connect 31 0 30 0;
#X connect 32 0 27 0;
#X connect 33 0 36 0;
#X connect 34 0 35 0;
#X connect 35 0 10 0;
#X connect 35 1 7 0;
#X connect 36 0 13 1;
#X connect 36 1 16 1;
#X connect 36 2 23 1;
#X connect 36 3 28 3;
#X connect 37 0 29 1;
#X connect 37 1 12 1;
#X restore 29 303 pd hsv2rgb;
#X obj 29 438 print toVCV;
#X msg 29 360 S1 \$1 \$2 \$3;
#X obj 30 16 loadbang;
#X msg 30 41 1;
#X msg 29 275 \$1 1 1;
#X obj 30 67 tgl 15 0 empty empty empty 17 7 0 10 -262144 -1 -1 1 1
;
#X obj 30 143 line;
#N canvas 250 355 563 749 hsv2rgb 0;
#X obj 20 64 route 0;
#X msg 20 36 \$2 \$3 \$1;
#X obj 20 552 f;
#X obj 66 92 unpack 0 0 0, f 27;
#X text 87 37 svh;
#X obj 20 8 inlet hsv;
#X obj 20 663 outlet rgb;
#X obj 303 166 * 6;
#X obj 284 213 % 6;
#X obj 252 190 t f f;
#X msg 252 166 0;
#X text 308 213 i;
#X obj 252 264 -;
#X obj 66 501 *;
#X obj 66 169 - 1;
#X obj 66 196 * -1;
#X obj 103 502 *;
#X obj 103 399 - 1;
#X obj 103 424 * -1;
#X obj 103 377 *;
#X obj 252 288 t f f;
#X obj 282 311 - 1;
#X obj 282 334 * -1;
#X obj 140 503 *;
#X obj 140 400 - 1;
#X obj 140 425 * -1;
#X obj 140 378 *;
#X obj 66 142 t f f f, f 11;
#X obj 66 535 pack 0 0 0 0, f 16;
#N canvas 1219 718 529 336 select 0;
#X obj 290 37 inlet;
#X obj 16 281 outlet;
#X obj 16 58 t b l, f 20;
#X obj 152 176 unpack 0 0 0 0;
#X obj 16 29 inlet p q t v;
#X obj 16 123 i;
#X obj 16 175 select 0 1 2 3 4 5;
#X obj 16 239 pack 0 0 0;
#X obj 16 209 f;
#X obj 96 239 pack 0 0 0;
#X obj 96 209 f;
#X obj 176 239 pack 0 0 0;
#X obj 176 209 f;
#X obj 256 239 pack 0 0 0;
#X obj 256 209 f;
#X obj 336 239 pack 0 0 0;
#X obj 336 209 f;
#X obj 416 239 pack 0 0 0;
#X obj 416 209 f;
#X connect 0 0 5 1;
#X connect 2 0 5 0;
#X connect 2 1 3 0;
#X connect 3 0 7 2;
#X connect 3 0 9 2;
#X connect 3 0 12 1;
#X connect 3 0 14 1;
#X connect 3 0 15 1;
#X connect 3 0 17 1;
#X connect 3 1 10 1;
#X connect 3 1 13 1;
#X connect 3 1 17 2;
#X connect 3 2 7 1;
#X connect 3 2 11 2;
#X connect 3 2 16 1;
#X connect 3 3 8 1;
#X connect 3 3 9 1;
#X connect 3 3 11 1;
#X connect 3 3 13 2;
#X connect 3 3 15 2;
#X connect 3 3 18 1;
#X connect 4 0 2 0;
#X connect 5 0 6 0;
#X connect 6 0 8 0;
#X connect 6 1 10 0;
#X connect 6 2 12 0;
#X connect 6 3 14 0;
#X connect 6 4 16 0;
#X connect 6 5 18 0;
#X connect 7 0 1 0;
#X connect 8 0 7 0;
#X connect 9 0 1 0;
#X connect 10 0 9 0;
#X connect 11 0 1 0;
#X connect 12 0 11 0;
#X connect 13 0 1 0;
#X connect 14 0 13 0;
#X connect 15 0 1 0;
#X connect 16 0 15 0;
#X connect 17 0 1 0;
#X connect 18 0 17 0;
#X restore 66 560 pd select;
#X f 28;
#X msg 20 621 \$1 \$1 \$1;
#X obj 20 593 clip 0 1;
#X obj 66 117 clip 0 1;
#X obj 175 119 clip 0 1;
#X obj 252 118 clip 0 1;
#X obj 252 142 select 1;
#X obj 175 462 t f f f f;
#X obj 260 237 t f f;
#X text 26 699 taken from the GEM helpfile hsv2rgb-help;
#X connect 0 0 2 0;
#X connect 0 1 3 0;
#X connect 1 0 0 0;
#X connect 2 0 31 0;
#X connect 3 0 32 0;
#X connect 3 1 33 0;
#X connect 3 2 34 0;
#X connect 5 0 1 0;
#X connect 7 0 9 0;
#X connect 8 0 37 0;
#X connect 9 0 12 0;
#X connect 9 1 8 0;
#X connect 10 0 9 0;
#X connect 12 0 20 0;
#X connect 13 0 28 0;
#X connect 14 0 15 0;
#X connect 15 0 13 0;
#X connect 16 0 28 1;
#X connect 17 0 18 0;
#X connect 18 0 16 0;
#X connect 19 0 17 0;
#X connect 20 0 19 1;
#X connect 20 1 21 0;
#X connect 21 0 22 0;
#X connect 22 0 26 1;
#X connect 23 0 28 2;
#X connect 24 0 25 0;
#X connect 25 0 23 0;
#X connect 26 0 24 0;
#X connect 27 0 14 0;
#X connect 27 1 19 0;
#X connect 27 2 26 0;
#X connect 28 0 29 0;
#X connect 29 0 6 0;
#X connect 30 0 6 0;
#X connect 31 0 30 0;
#X connect 32 0 27 0;
#X connect 33 0 36 0;
#X connect 34 0 35 0;
#X connect 35 0 10 0;
#X connect 35 1 7 0;
#X connect 36 0 13 1;
#X connect 36 1 16 1;
#X connect 36 2 23 1;
#X connect 36 3 28 3;
#X connect 37 0 29 1;
#X connect 37 1 12 1;
#X restore 125 303 pd hsv2rgb;
#N canvas 250 355 563 749 hsv2rgb 0;
#X obj 20 64 route 0;
#X msg 20 36 \$2 \$3 \$1;
#X obj 20 552 f;
#X obj 66 92 unpack 0 0 0, f 27;
#X text 87 37 svh;
#X obj 20 8 inlet hsv;
#X obj 20 663 outlet rgb;
#X obj 303 166 * 6;
#X obj 284 213 % 6;
#X obj 252 190 t f f;
#X msg 252 166 0;
#X text 308 213 i;
#X obj 252 264 -;
#X obj 66 501 *;
#X obj 66 169 - 1;
#X obj 66 196 * -1;
#X obj 103 502 *;
#X obj 103 399 - 1;
#X obj 103 424 * -1;
#X obj 103 377 *;
#X obj 252 288 t f f;
#X obj 282 311 - 1;
#X obj 282 334 * -1;
#X obj 140 503 *;
#X obj 140 400 - 1;
#X obj 140 425 * -1;
#X obj 140 378 *;
#X obj 66 142 t f f f, f 11;
#X obj 66 535 pack 0 0 0 0, f 16;
#N canvas 1219 718 529 336 select 0;
#X obj 290 37 inlet;
#X obj 16 281 outlet;
#X obj 16 58 t b l, f 20;
#X obj 152 176 unpack 0 0 0 0;
#X obj 16 29 inlet p q t v;
#X obj 16 123 i;
#X obj 16 175 select 0 1 2 3 4 5;
#X obj 16 239 pack 0 0 0;
#X obj 16 209 f;
#X obj 96 239 pack 0 0 0;
#X obj 96 209 f;
#X obj 176 239 pack 0 0 0;
#X obj 176 209 f;
#X obj 256 239 pack 0 0 0;
#X obj 256 209 f;
#X obj 336 239 pack 0 0 0;
#X obj 336 209 f;
#X obj 416 239 pack 0 0 0;
#X obj 416 209 f;
#X connect 0 0 5 1;
#X connect 2 0 5 0;
#X connect 2 1 3 0;
#X connect 3 0 7 2;
#X connect 3 0 9 2;
#X connect 3 0 12 1;
#X connect 3 0 14 1;
#X connect 3 0 15 1;
#X connect 3 0 17 1;
#X connect 3 1 10 1;
#X connect 3 1 13 1;
#X connect 3 1 17 2;
#X connect 3 2 7 1;
#X connect 3 2 11 2;
#X connect 3 2 16 1;
#X connect 3 3 8 1;
#X connect 3 3 9 1;
#X connect 3 3 11 1;
#X connect 3 3 13 2;
#X connect 3 3 15 2;
#X connect 3 3 18 1;
#X connect 4 0 2 0;
#X connect 5 0 6 0;
#X connect 6 0 8 0;
#X connect 6 1 10 0;
#X connect 6 2 12 0;
#X connect 6 3 14 0;
#X connect 6 4 16 0;
#X connect 6 5 18 0;
#X connect 7 0 1 0;
#X connect 8 0 7 0;
#X connect 9 0 1 0;
#X connect 10 0 9 0;
#X connect 11 0 1 0;
#X connect 12 0 11 0;
#X connect 13 0 1 0;
#X connect 14 0 13 0;
#X connect 15 0 1 0;
#X connect 16 0 15 0;
#X connect 17 0 1 0;
#X connect 18 0 17 0;
#X restore 66 560 pd select;
#X f 28;
#X msg 20 621 \$1 \$1 \$1;
#X obj 20 593 clip 0 1;
#X obj 66 117 clip 0 1;
#X obj 175 119 clip 0 1;
#X obj 252 118 clip 0 1;
#X obj 252 142 select 1;
#X obj 175 462 t f f f f;
#X obj 260 237 t f f;
#X text 26 699 taken from the GEM helpfile hsv2rgb-help;
#X connect 0 0 2 0;
#X connect 0 1 3 0;
#X connect 1 0 0 0;
#X connect 2 0 31 0;
#X connect 3 0 32 0;
#X connect 3 1 33 0;
#X connect 3 2 34 0;
#X connect 5 0 1 0;
#X connect 7 0 9 0;
#X connect 8 0 37 0;
#X connect 9 0 12 0;
#X connect 9 1 8 0;
#X connect 10 0 9 0;
#X connect 12 0 20 0;
#X connect 13 0 28 0;
#X connect 14 0 15 0;
#X connect 15 0 13 0;
#X connect 16 0 28 1;
#X connect 17 0 18 0;
#X connect 18 0 16 0;
#X connect 19 0 17 0;
#X connect 20 0 19 1;
#X connect 20 1 21 0;
#X connect 21 0 22 0;
#X connect 22 0 26 1;
#X connect 23 0 28 2;
#X connect 24 0 25 0;
#X connect 25 0 23 0;
#X connect 26 0 24 0;
#X connect 27 0 14 0;
#X connect 27 1 19 0;
#X connect 27 2 26 0;
#X connect 28 0 29 0;
#X connect 29 0 6 0;
#X connect 30 0 6 0;
#X connect 31 0 30 0;
#X connect 32 0 27 0;
#X connect 33 0 36 0;
#X connect 34 0 35 0;
#X connect 35 0 10 0;
#X connect 35 1 7 0;
#X connect 36 0 13 1;
#X connect 36 1 16 1;
#X connect 36 2 23 1;
#X connect 36 3 28 3;
#X connect 37 0 29 1;
#X connect 37 1 12 1;
#X restore 221 303 pd hsv2rgb;
#N canvas 250 355 563 749 hsv2rgb 0;
#X obj 20 64 route 0;
#X msg 20 36 \$2 \$3 \$1;
#X obj 20 552 f;
#X obj 66 92 unpack 0 0 0, f 27;
#X text 87 37 svh;
#X obj 20 8 inlet hsv;
#X obj 20 663 outlet rgb;
#X obj 303 166 * 6;
#X obj 284 213 % 6;
#X obj 252 190 t f f;
#X msg 252 166 0;
#X text 308 213 i;
#X obj 252 264 -;
#X obj 66 501 *;
#X obj 66 169 - 1;
#X obj 66 196 * -1;
#X obj 103 502 *;
#X obj 103 399 - 1;
#X obj 103 424 * -1;
#X obj 103 377 *;
#X obj 252 288 t f f;
#X obj 282 311 - 1;
#X obj 282 334 * -1;
#X obj 140 503 *;
#X obj 140 400 - 1;
#X obj 140 425 * -1;
#X obj 140 378 *;
#X obj 66 142 t f f f, f 11;
#X obj 66 535 pack 0 0 0 0, f 16;
#N canvas 1219 718 529 336 select 0;
#X obj 290 37 inlet;
#X obj 16 281 outlet;
#X obj 16 58 t b l, f 20;
#X obj 152 176 unpack 0 0 0 0;
#X obj 16 29 inlet p q t v;
#X obj 16 123 i;
#X obj 16 175 select 0 1 2 3 4 5;
#X obj 16 239 pack 0 0 0;
#X obj 16 209 f;
#X obj 96 239 pack 0 0 0;
#X obj 96 209 f;
#X obj 176 239 pack 0 0 0;
#X obj 176 209 f;
#X obj 256 239 pack 0 0 0;
#X obj 256 209 f;
#X obj 336 239 pack 0 0 0;
#X obj 336 209 f;
#X obj 416 239 pack 0 0 0;
#X obj 416 209 f;
#X connect 0 0 5 1;
#X connect 2 0 5 0;
#X connect 2 1 3 0;
#X connect 3 0 7 2;
#X connect 3 0 9 2;
#X connect 3 0 12 1;
#X connect 3 0 14 1;
#X connect 3 0 15 1;
#X connect 3 0 17 1;
#X connect 3 1 10 1;
#X connect 3 1 13 1;
#X connect 3 1 17 2;
#X connect 3 2 7 1;
#X connect 3 2 11 2;
#X connect 3 2 16 1;
#X connect 3 3 8 1;
#X connect 3 3 9 1;
#X connect 3 3 11 1;
#X connect 3 3 13 2;
#X connect 3 3 15 2;
#X connect 3 3 18 1;
#X connect 4 0 2 0;
#X connect 5 0 6 0;
#X connect 6 0 8 0;
#X connect 6 1 10 0;
#X connect 6 2 12 0;
#X connect 6 3 14 0;
#X connect 6 4 16 0;
#X connect 6 5 18 0;
#X connect 7 0 1 0;
#X connect 8 0 7 0;
#X connect 9 0 1 0;
#X connect 10 0 9 0;
#X connect 11 0 1 0;
#X connect 12 0 11 0;
#X connect 13 0 1 0;
#X connect 14 0 13 0;
#X connect 15 0 1 0;
#X connect 16 0 15 0;
#X connect 17 0 1 0;
#X connect 18 0 17 0;
#X restore 66 560 pd select;
#X f 28;
#X msg 20 621 \$1 \$1 \$1;
#X obj 20 593 clip 0 1;
#X obj 66 117 clip 0 1;
#X obj 175 119 clip 0 1;
#X obj 252 118 clip 0 1;
#X obj 252 142 select 1;
#X obj 175 462 t f f f f;
#X obj 260 237 t f f;
#X text 26 699 taken from the GEM helpfile hsv2rgb-help;
#X connect 0 0 2 0;
#X connect 0 1 3 0;
#X connect 1 0 0 0;
#X connect 2 0 31 0;
#X connect 3 0 32 0;
#X connect 3 1 33 0;
#X connect 3 2 34 0;
#X connect 5 0 1 0;
#X connect 7 0 9 0;
#X connect 8 0 37 0;
#X connect 9 0 12 0;
#X connect 9 1 8 0;
#X connect 10 0 9 0;
#X connect 12 0 20 0;
#X connect 13 0 28 0;
#X connect 14 0 15 0;
#X connect 15 0 13 0;
#X connect 16 0 28 1;
#X connect 17 0 18 0;
#X connect 18 0 16 0;
#X connect 19 0 17 0;
#X connect 20 0 19 1;
#X connect 20 1 21 0;
#X connect 21 0 22 0;
#X connect 22 0 26 1;
#X connect 23 0 28 2;
#X connect 24 0 25 0;
#X connect 25 0 23 0;
#X connect 26 0 24 0;
#X connect 27 0 14 0;
#X connect 27 1 19 0;
#X connect 27 2 26 0;
#X connect 28 0 29 0;
#X connect 29 0 6 0;
#X connect 30 0 6 0;
#X connect 31 0 30 0;
#X connect 32 0 27 0;
#X connect 33 0 36 0;
#X connect 34 0 35 0;
#X connect 35 0 10 0;
#X connect 35 1 7 0;
#X connect 36 0 13 1;
#X connect 36 1 16 1;
#X connect 36 2 23 1;
#X connect 36 3 28 3;
#X connect 37 0 29 1;
#X connect 37 1 12 1;
#X restore 317 303 pd hsv2rgb;
#N canvas 250 355 563 749 hsv2rgb 0;
#X obj 20 64 route 0;
#X msg 20 36 \$2 \$3 \$1;
#X obj 20 552 f;
#X obj 66 92 unpack 0 0 0, f 27;
#X text 87 37 svh;
#X obj 20 8 inlet hsv;
#X obj 20 663 outlet rgb;
#X obj 303 166 * 6;
#X obj 284 213 % 6;
#X obj 252 190 t f f;
#X msg 252 166 0;
#X text 308 213 i;
#X obj 252 264 -;
#X obj 66 501 *;
#X obj 66 169 - 1;
#X obj 66 196 * -1;
#X obj 103 502 *;
#X obj 103 399 - 1;
#X obj 103 424 * -1;
#X obj 103 377 *;
#X obj 252 288 t f f;
#X obj 282 311 - 1;
#X obj 282 334 * -1;
#X obj 140 503 *;
#X obj 140 400 - 1;
#X obj 140 425 * -1;
#X obj 140 378 *;
#X obj 66 142 t f f f, f 11;
#X obj 66 535 pack 0 0 0 0, f 16;
#N canvas 1219 718 529 336 select 0;
#X obj 290 37 inlet;
#X obj 16 281 outlet;
#X obj 16 58 t b l, f 20;
#X obj 152 176 unpack 0 0 0 0;
#X obj 16 29 inlet p q t v;
#X obj 16 123 i;
#X obj 16 175 select 0 1 2 3 4 5;
#X obj 16 239 pack 0 0 0;
#X obj 16 209 f;
#X obj 96 239 pack 0 0 0;
#X obj 96 209 f;
#X obj 176 239 pack 0 0 0;
#X obj 176 209 f;
#X obj 256 239 pack 0 0 0;
#X obj 256 209 f;
#X obj 336 239 pack 0 0 0;
#X obj 336 209 f;
#X obj 416 239 pack 0 0 0;
#X obj 416 209 f;
#X connect 0 0 5 1;
#X connect 2 0 5 0;
#X connect 2 1 3 0;
#X connect 3 0 7 2;
#X connect 3 0 9 2;
#X connect 3 0 12 1;
#X connect 3 0 14 1;
#X connect 3 0 15 1;
#X connect 3 0 17 1;
#X connect 3 1 10 1;
#X connect 3 1 13 1;
#X connect 3 1 17 2;
#X connect 3 2 7 1;
#X connect 3 2 11 2;
#X connect 3 2 16 1;
#X connect 3 3 8 1;
#X connect 3 3 9 1;
#X connect 3 3 11 1;
#X connect 3 3 13 2;
#X connect 3 3 15 2;
#X connect 3 3 18 1;
#X connect 4 0 2 0;
#X connect 5 0 6 0;
#X connect 6 0 8 0;
#X connect 6 1 10 0;
#X connect 6 2 12 0;
#X connect 6 3 14 0;
#X connect 6 4 16 0;
#X connect 6 5 18 0;
#X connect 7 0 1 0;
#X connect 8 0 7 0;
#X connect 9 0 1 0;
#X connect 10 0 9 0;
#X connect 11 0 1 0;
#X connect 12 0 11 0;
#X connect 13 0 1 0;
#X connect 14 0 13 0;
#X connect 15 0 1 0;
#X connect 16 0 15 0;
#X connect 17 0 1 0;
#X connect 18 0 17 0;
#X restore 66 560 pd select;
#X f 28;
#X msg 20 621 \$1 \$1 \$1;
#X obj 20 593 clip 0 1;
#X obj 66 117 clip 0 1;
#X obj 175 119 clip 0 1;
#X obj 252 118 clip 0 1;
#X obj 252 142 select 1;
#X obj 175 462 t f f f f;
#X obj 260 237 t f f;
#X text 26 699 taken from the GEM helpfile hsv2rgb-help;
#X connect 0 0 2 0;
#X connect 0 1 3 0;
#X connect 1 0 0 0;
#X connect 2 0 31 0;
#X connect 3 0 32 0;
#X connect 3 1 33 0;
#X connect 3 2 34 0;
#X connect 5 0 1 0;
#X connect 7 0 9 0;
#X connect 8 0 37 0;
#X connect 9 0 12 0;
#X connect 9 1 8 0;
#X connect 10 0 9 0;
#X connect 12 0 20 0;
#X connect 13 0 28 0;
#X connect 14 0 15 0;
#X connect 15 0 13 0;
#X connect 16 0 28 1;
#X connect 17 0 18 0;
#X connect 18 0 16 0;
#X connect 19 0 17 0;
#X connect 20 0 19 1;
#X connect 20 1 21 0;
#X connect 21 0 22 0;
#X connect 22 0 26 1;
#X connect 23 0 28 2;
#X connect 24 0 25 0;
#X connect 25 0 23 0;
#X connect 26 0 24 0;
#X connect 27 0 14 0;
#X connect 27 1 19 0;
#X connect 27 2 26 0;
#X connect 28 0 29 0;
#X connect 29 0 6 0;
#X connect 30 0 6 0;
#X connect 31 0 30 0;
#X connect 32 0 27 0;
#X connect 33 0 36 0;
#X connect 34 0 35 0;
#X connect 35 0 10 0;
#X connect 35 1 7 0;
#X connect 36 0 13 1;
#X connect 36 1 16 1;
#X connect 36 2 23 1;
#X connect 36 3 28 3;
#X connect 37 0 29 1;
#X connect 37 1 12 1;
#X restore 413 303 pd hsv2rgb;
#N canvas 250 355 563 749 hsv2rgb 0;
#X obj 20 64 route 0;
#X msg 20 36 \$2 \$3 \$1;
#X obj 20 552 f;
#X obj 66 92 unpack 0 0 0, f 27;
#X text 87 37 svh;
#X obj 20 8 inlet hsv;
#X obj 20 663 outlet rgb;
#X obj 303 166 * 6;
#X obj 284 213 % 6;
#X obj 252 190 t f f;
#X msg 252 166 0;
#X text 308 213 i;
#X obj 252 264 -;
#X obj 66 501 *;
#X obj 66 169 - 1;
#X obj 66 196 * -1;
#X obj 103 502 *;
#X obj 103 399 - 1;
#X obj 103 424 * -1;
#X obj 103 377 *;
#X obj 252 288 t f f;
#X obj 282 311 - 1;
#X obj 282 334 * -1;
#X obj 140 503 *;
#X obj 140 400 - 1;
#X obj 140 425 * -1;
#X obj 140 378 *;
#X obj 66 142 t f f f, f 11;
#X obj 66 535 pack 0 0 0 0, f 16;
#N canvas 1219 718 529 336 select 0;
#X obj 290 37 inlet;
#X obj 16 281 outlet;
#X obj 16 58 t b l, f 20;
#X obj 152 176 unpack 0 0 0 0;
#X obj 16 29 inlet p q t v;
#X obj 16 123 i;
#X obj 16 175 select 0 1 2 3 4 5;
#X obj 16 239 pack 0 0 0;
#X obj 16 209 f;
#X obj 96 239 pack 0 0 0;
#X obj 96 209 f;
#X obj 176 239 pack 0 0 0;
#X obj 176 209 f;
#X obj 256 239 pack 0 0 0;
#X obj 256 209 f;
#X obj 336 239 pack 0 0 0;
#X obj 336 209 f;
#X obj 416 239 pack 0 0 0;
#X obj 416 209 f;
#X connect 0 0 5 1;
#X connect 2 0 5 0;
#X connect 2 1 3 0;
#X connect 3 0 7 2;
#X connect 3 0 9 2;
#X connect 3 0 12 1;
#X connect 3 0 14 1;
#X connect 3 0 15 1;
#X connect 3 0 17 1;
#X connect 3 1 10 1;
#X connect 3 1 13 1;
#X connect 3 1 17 2;
#X connect 3 2 7 1;
#X connect 3 2 11 2;
#X connect 3 2 16 1;
#X connect 3 3 8 1;
#X connect 3 3 9 1;
#X connect 3 3 11 1;
#X connect 3 3 13 2;
#X connect 3 3 15 2;
#X connect 3 3 18 1;
#X connect 4 0 2 0;
#X connect 5 0 6 0;
#X connect 6 0 8 0;
#X connect 6 1 10 0;
#X connect 6 2 12 0;
#X connect 6 3 14 0;
#X connect 6 4 16 0;
#X connect 6 5 18 0;
#X connect 7 0 1 0;
#X connect 8 0 7 0;
#X connect 9 0 1 0;
#X connect 10 0 9 0;
#X connect 11 0 1 0;
#X connect 12 0 11 0;
#X connect 13 0 1 0;
#X connect 14 0 13 0;
#X connect 15 0 1 0;
#X connect 16 0 15 0;
#X connect 17 0 1 0;
#X connect 18 0 17 0;
#X restore 66 560 pd select;
#X f 28;
#X msg 20 621 \$1 \$1 \$1;
#X obj 20 593 clip 0 1;
#X obj 66 117 clip 0 1;
#X obj 175 119 clip 0 1;
#X obj 252 118 clip 0 1;
#X obj 252 142 select 1;
#X obj 175 462 t f f f f;
#X obj 260 237 t f f;
#X text 26 699 taken from the GEM helpfile hsv2rgb-help;
#X connect 0 0 2 0;
#X connect 0 1 3 0;
#X connect 1 0 0 0;
#X connect 2 0 31 0;
#X connect 3 0 32 0;
#X connect 3 1 33 0;
#X connect 3 2 34 0;
#X connect 5 0 1 0;
#X connect 7 0 9 0;
#X connect 8 0 37 0;
#X connect 9 0 12 0;
#X connect 9 1 8 0;
#X connect 10 0 9 0;
#X connect 12 0 20 0;
#X connect 13 0 28 0;
#X connect 14 0 15 0;
#X connect 15 0 13 0;
#X connect 16 0 28 1;
#X connect 17 0 18 0;
#X connect 18 0 16 0;
#X connect 19 0 17 0;
#X connect 20 0 19 1;
#X connect 20 1 21 0;
#X connect 21 0 22 0;
#X connect 22 0 26 1;
#X connect 23 0 28 2;
#X connect 24 0 25 0;
#X connect 25 0 23 0;
#X connect 26 0 24 0;
#X connect 27 0 14 0;
#X connect 27 1 19 0;
#X connect 27 2 26 0;
#X connect 28 0 29 0;
#X connect 29 0 6 0;
#X connect 30 0 6 0;
#X connect 31 0 30 0;
#X connect 32 0 27 0;
#X connect 33 0 36 0;
#X connect 34 0 35 0;
#X connect 35 0 10 0;
#X connect 35 1 7 0;
#X connect 36 0 13 1;
#X connect 36 1 16 1;
#X connect 36 2 23 1;
#X connect 36 3 28 3;
#X connect 37 0 29 1;
#X connect 37 1 12 1;
#X restore 509 303 pd hsv2rgb;
#X msg 125 360 S2 \$1 \$2 \$3;
#X msg 221 360 S3 \$1 \$2 \$3;
#X msg 317 360 S4 \$1 \$2 \$3;
#X msg 413 360 S5 \$1 \$2 \$3;
#X msg 509 360 S6 \$1 \$2 \$3;
#X obj 29 480 loadbang;
#X obj 29 534 print toVCV;
#X obj 30 92 metro 2000;
#X msg 62 386 L1 \$1 \$2 \$3;
#X msg 158 386 L2 \$1 \$2 \$3;
#X msg 254 386 L3 \$1 \$2 \$3;
#X msg 350 386 L4 \$1 \$2 \$3;
#X msg 447 386 L5 \$1 \$2 \$3;
#X msg 542 386 L6 \$1 \$2 \$3;
#X obj 266 534 dac~ 1 2 3 4 5 6;
#X msg 29 506 display Hello world!;
#X obj 29 329 t l l;
#X obj 125 329 t l l;
#X obj 221 329 t l l;
#X obj 317 329 t l l;
#X obj 413 329 t l l;
#X obj 509 329 t l l;
#X msg 125 276 \$1 1 1;
#X msg 30 118 0 \, 100 2000;
#X obj 125 201 + 16.6667;
#X obj 125 227 % 100;
#X obj 29 249 / 100;
#X obj 125 252 / 100;
#X obj 221 224 % 100;
#X obj 221 249 / 100;
#X msg 221 275 \$1 1 1;
#X obj 317 225 % 100;
#X obj 317 250 / 100;
#X msg 317 276 \$1 1 1;
#X obj 413 226 % 100;
#X obj 413 251 / 100;
#X msg 413 277 \$1 1 1;
#X obj 509 226 % 100;
#X obj 509 251 / 100;
#X msg 509 277 \$1 1 1;
#X obj 221 198 + 33.3334;
#X obj 413 200 + 66.6667;
#X obj 509 200 + 83.3334;
#X obj 29 167 t f f f f f f, f 69;
#X obj 317 199 + 50;
#X connect 0 0 29 0;
#X connect 2 0 1 0;
#X connect 3 0 4 0;
#X connect 4 0 6 0;
#X connect 5 0 0 0;
#X connect 6 0 20 0;
#X connect 7 0 56 0;
#X connect 8 0 30 0;
#X connect 9 0 31 0;
#X connect 10 0 32 0;
#X connect 11 0 33 0;
#X connect 12 0 34 0;
#X connect 13 0 1 0;
#X connect 14 0 1 0;
#X connect 15 0 1 0;
#X connect 16 0 1 0;
#X connect 17 0 1 0;
#X connect 18 0 28 0;
#X connect 20 0 36 0;
#X connect 21 0 1 0;
#X connect 22 0 1 0;
#X connect 23 0 1 0;
#X connect 24 0 1 0;
#X connect 25 0 1 0;
#X connect 26 0 1 0;
#X connect 28 0 19 0;
#X connect 29 0 2 0;
#X connect 29 1 21 0;
#X connect 30 0 13 0;
#X connect 30 1 22 0;
#X connect 31 0 14 0;
#X connect 31 1 23 0;
#X connect 32 0 15 0;
#X connect 32 1 24 0;
#X connect 33 0 16 0;
#X connect 33 1 25 0;
#X connect 34 0 17 0;
#X connect 34 1 26 0;
#X connect 35 0 8 0;
#X connect 36 0 7 0;
#X connect 37 0 38 0;
#X connect 38 0 40 0;
#X connect 39 0 5 0;
#X connect 40 0 35 0;
#X connect 41 0 42 0;
#X connect 42 0 43 0;
#X connect 43 0 9 0;
#X connect 44 0 45 0;
#X connect 45 0 46 0;
#X connect 46 0 10 0;
#X connect 47 0 48 0;
#X connect 48 0 49 0;
#X connect 49 0 11 0;
#X connect 50 0 51 0;
#X connect 51 0 52 0;
#X connect 52 0 12 0;
#X connect 53 0 41 0;
#X connect 54 0 47 0;
#X connect 55 0 50 0;
#X connect 56 0 39 0;
#X connect 56 1 37 0;
#X connect 56 2 53 0;
#X connect 56 3 57 0;
#X connect 56 4 54 0;
#X connect 56 5 55 0;
#X connect 57 0 44 0;
