#N canvas 589 332 483 581 12;
#X obj 32 525 dac~ 1 2 3 4 5 6;
#X obj 32 401 adc~ 1 2 3 4 5 6;
#X obj 36 62 route K1 K2 K3 K4 K5 K6;
#X obj 194 106 route S1 S2 S3 S4 S5 S6;
#X text 214 60 knobs;
#X text 369 104 buttons;
#X msg 54 333 display this text will print;
#X msg 32 259 L1 \$1 \$2 \$3;
#X obj 32 230 pack f f f;
#X obj 47 202 t b f;
#X obj 89 203 t b f;
#X obj 32 123 vsl 15 50 0 1 0 0 empty empty empty 0 -9 0 10 -258113
-1 -1 0 1;
#X obj 47 123 vsl 15 50 0 1 0 0 empty empty empty 0 -9 0 10 -4034 -1
-1 0 1;
#X obj 62 123 vsl 15 50 0 1 0 0 empty empty empty 0 -9 0 10 -4160 -1
-1 0 1;
#X obj 36 25 r fromRack;
#X obj 32 367 print toRack;
#X text 263 332 to the display;
#X text 121 25 receiving control data from VCV Prototype module;
#X text 129 368 sending control data from VCV Prototype module;
#X text 158 401 receiving audio from VCV Prototype module;
#X text 158 525 sending audio to VCV Prototype module;
#X connect 2 6 3 0;
#X connect 6 0 15 0;
#X connect 7 0 15 0;
#X connect 8 0 7 0;
#X connect 9 0 8 0;
#X connect 9 1 8 1;
#X connect 10 0 8 0;
#X connect 10 1 8 2;
#X connect 11 0 8 0;
#X connect 12 0 9 0;
#X connect 13 0 10 0;
#X connect 14 0 2 0;
