#N canvas 3038 579 617 344 12;
#X obj 61 19 r fromVCV;
#X obj 61 44 route K1;
#X obj 61 126 mtof;
#X obj 61 234 osc~;
#X obj 61 259 dac~ 1;
#X obj 61 73 * 120;
#X obj 61 98 + 15;
#X obj 147 264 print toVCV;
#X msg 147 232 desplay Freq: \$1 Hz;
#X obj 61 164 t f f;
#X connect 0 0 1 0;
#X connect 1 0 5 0;
#X connect 2 0 9 0;
#X connect 3 0 4 0;
#X connect 5 0 6 0;
#X connect 6 0 2 0;
#X connect 8 0 7 0;
#X connect 9 0 3 0;
#X connect 9 1 8 0;
