#N canvas 832 571 566 366 12;
#X obj 27 18 r fromVCV;
#X obj 27 43 route K1;
#X obj 27 180 mtof;
#X obj 27 236 osc~;
#X obj 27 261 dac~ 1;
#X obj 27 125 * 120;
#X obj 27 154 + 15;
#X obj 108 260 print toVCV;
#X obj 27 207 t f f, f 12;
#X msg 108 236 display Freq: \$1 Hz;
#X obj 39 71 loadbang;
#X msg 39 96 0.5;
#X connect 0 0 1 0;
#X connect 1 0 5 0;
#X connect 2 0 8 0;
#X connect 3 0 4 0;
#X connect 5 0 6 0;
#X connect 6 0 2 0;
#X connect 8 0 3 0;
#X connect 8 1 9 0;
#X connect 9 0 7 0;
#X connect 10 0 11 0;
#X connect 11 0 5 0;
